HIERARCHY
ROOT Hips
{
	OFFSET -3.958830 18.904000 13.208200
	CHANNELS 6 Xposition Yposition Zposition Zrotation Yrotation Xrotation 
	JOINT LHipJoint
	{
		OFFSET 0.000000 0.000000 0.000000
		CHANNELS 3 Zrotation Yrotation Xrotation
		JOINT LeftUpLeg
		{
			OFFSET 1.800000 -1.400000 0.085000
			CHANNELS 3 Zrotation Yrotation Xrotation
			JOINT LeftLeg
			{
				OFFSET 2.215000 -6.000000 0.000000
				CHANNELS 3 Zrotation Yrotation Xrotation
				JOINT LeftFoot
				{
					OFFSET 2.500000 -6.900000 0.000000
					CHANNELS 3 Zrotation Yrotation Xrotation
					JOINT LeftToeBase
					{
						OFFSET 0.200000 -0.500000 1.950000
						CHANNELS 3 Zrotation Yrotation Xrotation
						End Site
						{
							OFFSET 0.000000 0.000000 0.000000
						}
					}
				}
			}
		}
	}
	JOINT RHipJoint
	{
		OFFSET 0.000000 0.000000 0.000000
		CHANNELS 3 Zrotation Yrotation Xrotation
		JOINT RightUpLeg
		{
			OFFSET -1.800000 -1.400000 0.085000
			CHANNELS 3 Zrotation Yrotation Xrotation
			JOINT RightLeg
			{
				OFFSET -2.215000 -6.000000 0.000000
				CHANNELS 3 Zrotation Yrotation Xrotation
				JOINT RightFoot
				{
					OFFSET -2.500000 -6.900000 0.000000
					CHANNELS 3 Zrotation Yrotation Xrotation
					JOINT RightToeBase
					{
						OFFSET -0.200000 -0.500000 1.950000
						CHANNELS 3 Zrotation Yrotation Xrotation
						End Site
						{
							OFFSET 0.000000 0.000000 0.000000
						}
					}
				}
			}
		}
	}
	JOINT LowerBack
	{
		OFFSET 0.000000 0.000000 0.000000
		CHANNELS 3 Zrotation Yrotation Xrotation
		JOINT Spine
		{
			OFFSET -0.087000 1.940000 -0.288900
			CHANNELS 3 Zrotation Yrotation Xrotation
			JOINT Spine1
			{
				OFFSET 0.000000 1.950000 0.060000
				CHANNELS 3 Zrotation Yrotation Xrotation
				JOINT Neck
				{
					OFFSET 0.000000 0.000000 0.000000
					CHANNELS 3 Zrotation Yrotation Xrotation
					JOINT Neck1
					{
						OFFSET 0.000000 1.600000 0.340000
						CHANNELS 3 Zrotation Yrotation Xrotation
						JOINT Head
						{
							OFFSET 0.000000 1.667000 -0.240000
							CHANNELS 3 Zrotation Yrotation Xrotation
							End Site
							{
								OFFSET 0.000000 0.000000 0.000000
							}
						}
					}
				}
				JOINT LeftShoulder
				{
					OFFSET 0.000000 0.000000 0.000000
					CHANNELS 3 Zrotation Yrotation Xrotation
					JOINT LeftArm
					{
						OFFSET 2.700000 1.550000 -0.730000
						CHANNELS 3 Zrotation Yrotation Xrotation
						JOINT LeftForeArm
						{
							OFFSET 5.450000 0.000000 0.000000
							CHANNELS 3 Zrotation Yrotation Xrotation
							JOINT LeftHand
							{
								OFFSET 3.450000 0.000000 0.000000
								CHANNELS 3 Zrotation Yrotation Xrotation
								JOINT LeftHandIndex1
								{
									OFFSET 0.750000 0.000000 0.000000
									CHANNELS 3 Zrotation Yrotation Xrotation
									End Site
									{
										OFFSET 0.000000 0.000000 0.000000
									}
								}
							}
						}
					}
				}
				JOINT RightShoulder
				{
					OFFSET 0.000000 0.000000 0.000000
					CHANNELS 3 Zrotation Yrotation Xrotation
					JOINT RightArm
					{
						OFFSET -2.700000 1.550000 -0.730000
						CHANNELS 3 Zrotation Yrotation Xrotation
						JOINT RightForeArm
						{
							OFFSET -5.450000 0.000000 0.000000
							CHANNELS 3 Zrotation Yrotation Xrotation
							JOINT RightHand
							{
								OFFSET -3.450000 0.000000 0.000000
								CHANNELS 3 Zrotation Yrotation Xrotation
								JOINT RightHandIndex1
								{
									OFFSET -0.750000 0.000000 0.000000
									CHANNELS 3 Zrotation Yrotation Xrotation
									End Site
									{
										OFFSET 0.000000 0.000000 0.000000
									}
								}
							}
						}
					}
				}
			}
		}
	}
}
MOTION
Frames: 7
Frame Time: 0.016667
1.581470 16.465860 -10.100780 8.149733 -24.434490 8.514311 -15.431232 10.811597 4.826941 33.534450 2.165200 -40.425349 -1.340197 9.579363 28.671541 0.215033 6.862428 2.080263 0.277090 0.035060 0.221380 18.613634 -8.019933 4.447573 -24.113128 9.670644 -44.378003 20.064605 -18.797123 44.814848 -1.094089 -8.580960 1.463573 -0.142040 0.094950 0.167030 -4.146188 -1.696347 -9.476859 28.802982 -12.932561 38.055162 -10.481199 -1.015504 -10.049323 4.573841 -5.999384 -3.951565 -9.565817 -4.250109 29.815071 -1.468370 -5.978320 -15.402010 -17.671949 17.712668 -3.969582 -46.543677 15.065759 -13.566184 -25.261021 -38.975537 6.849398 -3.347384 3.226636 0.388640 -0.045590 0.044910 0.167580 5.800610 -10.189946 2.584103 37.475581 -3.697206 -12.483397 16.827654 87.231229 10.399268 2.190548 -2.072850 0.003010 0.025260 -0.171880 -0.024150 
1.602860 16.369870 -10.010990 6.560652 -24.203929 11.567339 -15.276150 11.027668 3.997298 30.693683 1.870620 -37.658775 2.983858 7.257603 24.271468 0.024601 5.666668 2.492946 0.344090 0.110540 0.285140 18.723068 -8.150072 4.940745 -25.375750 10.077585 -46.941475 23.586647 -20.305304 44.059156 -1.223790 -8.952697 1.331764 -0.067770 0.091090 0.205070 -4.442707 -1.327090 -9.293464 33.322518 -12.599499 30.878732 -9.895697 -1.212197 -7.468823 5.197069 -4.191893 -3.602921 -6.278613 -5.537343 29.412403 -4.715350 -4.598300 -15.357260 -17.701191 14.972749 -3.760324 -46.881978 13.651549 -12.827757 -15.615836 -18.402555 0.376562 -3.564311 2.898155 0.381930 -0.002610 0.060350 0.180740 5.011176 -9.299494 1.539941 39.524095 -2.574004 -19.541162 -57.201901 85.712074 -47.532149 1.386828 0.196910 0.000660 0.034190 -0.191370 -0.046120 
1.609530 16.307160 -9.974150 5.766894 -24.814162 13.271089 -15.183211 11.480042 3.262170 27.117212 1.222942 -34.895152 6.342335 5.551793 22.068138 -0.070588 4.764907 2.793926 0.454140 0.257050 0.368880 18.743119 -8.261684 5.323204 -25.731332 10.691667 -48.951386 24.864087 -20.679878 44.323680 -1.313513 -9.164585 1.246600 0.020790 0.032380 0.252490 -4.476355 -1.397468 -9.099317 34.430132 -11.609401 27.999569 -7.892710 -0.799700 -6.947118 5.550064 -1.808762 -3.473299 -2.180481 -6.837921 28.571411 -7.666520 -2.968370 -15.152070 -20.138665 13.601766 -4.542694 -44.321590 12.677658 -10.309279 -10.766977 -2.020159 -1.592235 -3.719199 2.786912 0.338860 0.021750 0.102540 0.207010 7.018274 -9.933768 2.081149 39.328541 1.809106 -9.521677 -99.932110 62.228698 -68.315564 1.807087 0.158066 0.055340 -0.022110 -0.263470 -0.051040 
1.619760 16.258360 -9.954110 5.446614 -25.627503 13.809561 -15.135645 11.961573 2.769077 23.688753 0.556452 -32.453743 7.456883 4.769174 22.011236 -0.097728 4.321436 2.963083 0.458220 0.282050 0.380010 18.706611 -8.358039 5.570351 -26.005480 11.102867 -49.613262 25.822272 -20.549203 44.156627 -1.334724 -9.212232 1.232485 0.026530 0.025410 0.273370 -4.355561 -1.661376 -8.955109 34.496448 -10.984493 27.844638 -5.974121 -0.145475 -8.239083 5.531241 -0.224793 -3.878005 0.608292 -7.152503 28.135058 -9.562970 -1.401960 -14.352970 -19.865724 13.126156 -4.653463 -41.695036 12.844453 -8.344401 -10.541905 10.861653 -2.284812 -3.848458 2.695170 0.306650 0.044430 0.118890 0.216720 6.646382 -9.560877 2.029018 40.941283 5.796803 -7.241111 -112.998239 46.219518 -70.398638 2.180725 -1.468353 0.075920 -0.045350 -0.282420 -0.041840 
1.620810 16.261660 -9.952930 5.471059 -26.928288 12.515676 -15.223671 12.815247 2.529282 20.495152 0.078070 -29.720989 6.970336 4.721353 23.741722 -0.068075 4.245951 2.978034 0.434970 0.266340 0.365470 18.487442 -8.298349 5.587102 -25.161814 11.632072 -48.177045 24.970131 -19.492043 44.480744 -1.308422 -9.031383 1.276633 -0.015510 -0.027350 0.293210 -3.758852 -2.991634 -8.900869 32.727403 -11.216132 32.577627 -3.415536 1.355021 -12.256536 5.428853 -0.095087 -4.529774 0.703343 -7.138361 29.418257 -11.642110 -0.386960 -15.267920 -19.526609 13.571410 -5.190819 -37.287712 13.778930 -6.914749 -12.153174 21.286067 -3.099279 -3.876541 2.650773 0.325670 0.004380 0.165180 0.206250 6.106833 -7.808173 2.344404 41.118672 9.306040 -5.730648 -122.132432 30.722993 -59.925721 2.230070 -1.974560 0.107500 -0.091920 -0.279550 -0.032880 
1.615470 16.273490 -9.954500 5.354179 -27.647569 13.302677 -15.394251 13.241922 2.629278 17.793820 -0.611133 -29.885612 5.206137 5.361448 26.650005 -0.060003 4.570119 2.880150 0.410530 0.219450 0.374850 18.278300 -7.998140 5.598561 -24.448253 12.006754 -48.172135 24.812103 -18.317248 43.416925 -1.239866 -8.698488 1.393446 -0.044280 -0.009510 0.320540 -3.143134 -4.199355 -8.998501 30.866739 -10.354398 35.891187 -1.441337 4.382918 -17.297939 5.689264 1.221552 -4.915798 3.043218 -7.560301 28.882334 -13.970500 1.566020 -15.141660 -18.075551 15.529055 -6.554980 -32.833583 13.380497 -5.581255 -7.186565 27.683573 -1.663384 -4.047624 2.488965 0.352950 0.027580 0.174980 0.210660 3.528694 -7.970169 3.003233 42.857266 11.260854 -3.631506 -128.807017 17.844779 -43.016932 2.229251 -2.266530 0.085670 -0.091130 -0.266810 -0.050830 
1.618950 16.300150 -9.967140 5.438519 -28.079811 13.967827 -15.592657 13.476980 2.861869 14.569703 -1.652728 -31.471443 4.140419 6.040544 30.904740 0.057984 5.007824 2.713029 0.409910 0.253990 0.384500 18.079666 -7.692425 5.526811 -23.838557 11.959457 -48.152898 24.169462 -17.129253 42.597120 -1.167383 -8.345736 1.509777 -0.048640 -0.049800 0.308040 -2.560471 -5.257647 -9.112291 28.269393 -9.696370 39.619237 -0.242817 7.405092 -22.198419 5.462688 3.189438 -5.464087 6.447258 -8.026623 27.761502 -14.323600 3.659260 -15.033850 -14.290115 17.856505 -7.277644 -29.348690 13.502498 -5.644244 -5.106209 27.890986 -1.069815 -4.068448 2.385261 0.341220 0.009230 0.214040 0.221830 -0.443279 -8.951744 3.569575 47.059214 12.223306 -2.205073 -134.308489 9.206485 -25.986570 2.322668 -2.518491 0.103650 -0.123600 -0.309650 -0.041150 
